<?xml version="1.0" standalone="no"?>
<!DOCTYPE svg PUBLIC "-//W3C//DTD SVG 20010904//EN"
 "http://www.w3.org/TR/2001/REC-SVG-20010904/DTD/svg10.dtd">
<svg version="1.0" xmlns="http://www.w3.org/2000/svg"
 width="139.000000pt" height="99.000000pt" viewBox="0 0 139.000000 99.000000"
 preserveAspectRatio="xMidYMid meet">
<metadata>
Created by potrace 1.15, written by Peter Selinger 2001-2017
</metadata>
<g transform="translate(0.000000,99.000000) scale(0.100000,-0.100000)"
fill="#000000" stroke="none">
<path d="M792 906 l-82 -84 0 -61 0 -61 -128 0 c-86 0 -132 -4 -140 -12 -8 -8
-12 -58 -12 -160 l0 -148 -95 0 -95 0 0 35 c0 98 -55 145 -167 145 l-73 0 0
-74 0 -75 38 -3 37 -3 3 -107 3 -107 -38 -3 -38 -3 -3 -69 c-3 -79 2 -86 63
-86 106 0 163 44 172 134 l6 56 41 0 41 0 -3 -54 c-4 -64 13 -104 61 -140 l34
-26 437 0 c483 0 469 -2 514 64 17 25 22 47 22 97 0 57 -4 69 -30 101 -17 21
-49 44 -75 54 l-45 17 -2 326 -3 326 -181 3 -180 2 -82 -84z m388 -226 l0
-260 -205 0 -205 0 0 187 0 188 72 72 72 73 133 0 133 0 0 -260z m-470 -150
l0 -110 -110 0 -110 0 0 110 0 110 110 0 110 0 0 -110z m-551 -56 c19 -24 21
-40 21 -173 0 -182 -5 -195 -78 -199 -42 -2 -52 0 -52 12 0 10 9 16 22 16 12
0 32 10 45 22 22 20 23 29 23 149 0 126 0 128 -26 148 -15 12 -35 21 -45 21
-11 0 -19 7 -19 15 0 11 12 15 44 15 36 0 48 -5 65 -26z m1021 -129 c0 -13
-45 -15 -345 -15 -300 0 -345 2 -345 15 0 13 45 15 345 15 300 0 345 -2 345
-15z m100 -93 c26 -12 39 -28 50 -60 14 -40 13 -45 -5 -80 -11 -20 -31 -42
-45 -49 -19 -10 -123 -13 -423 -13 -434 0 -440 1 -466 57 -28 60 6 145 62 156
12 2 195 5 407 6 348 1 388 -1 420 -17z"/>
<path d="M866 845 l-66 -65 0 -83 c0 -51 5 -88 12 -95 14 -14 295 -17 316 -4
9 7 12 45 10 158 l-3 149 -101 3 -101 3 -67 -66z m214 -95 l0 -100 -110 0
-110 0 0 52 c0 49 3 55 47 100 46 47 48 48 110 48 l63 0 0 -100z"/>
<path d="M535 249 c-82 -47 -69 -168 21 -185 64 -12 124 36 124 100 0 60 -94
114 -145 85z"/>
<path d="M808 245 c-86 -48 -51 -185 47 -185 29 0 45 8 72 35 31 31 35 40 30
72 -12 71 -89 112 -149 78z"/>
<path d="M1088 244 c-57 -31 -66 -107 -19 -155 38 -38 87 -39 129 -4 56 47 51
118 -10 155 -39 23 -63 25 -100 4z"/>
</g>
</svg>
