<?xml version="1.0" standalone="no"?>
<!DOCTYPE svg PUBLIC "-//W3C//DTD SVG 20010904//EN"
 "http://www.w3.org/TR/2001/REC-SVG-20010904/DTD/svg10.dtd">
<svg version="1.0" xmlns="http://www.w3.org/2000/svg"
 width="112.000000pt" height="99.000000pt" viewBox="0 0 112.000000 99.000000"
 preserveAspectRatio="xMidYMid meet">
<metadata>
Created by potrace 1.15, written by Peter Selinger 2001-2017
</metadata>
<g transform="translate(0.000000,99.000000) scale(0.100000,-0.100000)"
fill="#000000" stroke="none">
<path d="M0 950 l0 -39 62 -3 61 -3 54 -77 55 -78 -116 0 -116 0 0 -205 0
-205 54 0 53 0 5 -50 c12 -120 142 -200 251 -152 24 11 47 25 51 31 8 12 -30
91 -44 91 -6 0 -10 -4 -10 -8 0 -12 -46 -32 -71 -32 -31 0 -79 53 -79 88 0 64
65 106 122 77 17 -8 32 -15 33 -15 2 0 6 20 9 45 10 64 61 134 123 170 49 28
52 32 53 71 0 62 -13 71 -125 89 -55 9 -102 19 -106 23 -3 4 -32 45 -65 91
-85 120 -100 131 -185 131 l-69 0 0 -40z"/>
<path d="M780 664 c-255 -95 -274 -103 -308 -135 -69 -64 -94 -153 -68 -241
14 -50 76 -138 97 -138 14 0 -2 81 -23 115 -23 38 -24 125 -1 172 24 52 58 71
241 138 l168 61 -18 -35 c-10 -19 -18 -45 -18 -58 0 -20 2 -21 31 -11 17 6 34
21 40 35 5 13 20 39 34 57 14 18 25 40 25 49 0 14 -36 48 -50 46 -3 0 -70 -25
-150 -55z"/>
<path d="M955 530 c-163 -43 -290 -100 -360 -161 -87 -76 -84 -233 6 -314 48
-43 77 -55 130 -55 36 0 40 3 37 21 -2 17 -14 25 -51 34 -102 26 -147 111
-115 220 l11 40 7 -30 c10 -47 28 -73 60 -90 60 -31 157 -10 237 51 18 14 45
24 63 24 46 0 99 28 121 64 13 21 19 50 19 90 0 53 -3 61 -34 92 -39 39 -38
39 -131 14z m104 -75 c11 -22 11 -36 2 -66 -14 -46 -35 -59 -94 -59 -29 0 -49
-6 -58 -16 -22 -26 -83 -62 -127 -73 -61 -17 -88 -2 -106 56 -13 46 -13 49 7
64 44 35 320 133 352 125 6 -1 16 -15 24 -31z"/>
</g>
</svg>
