<?xml version="1.0" standalone="no"?>
<!DOCTYPE svg PUBLIC "-//W3C//DTD SVG 20010904//EN"
 "http://www.w3.org/TR/2001/REC-SVG-20010904/DTD/svg10.dtd">
<svg version="1.0" xmlns="http://www.w3.org/2000/svg"
 width="131.000000pt" height="80.000000pt" viewBox="0 0 131.000000 80.000000"
 preserveAspectRatio="xMidYMid meet">
<metadata>
Created by potrace 1.15, written by Peter Selinger 2001-2017
</metadata>
<g transform="translate(0.000000,80.000000) scale(0.100000,-0.100000)"
fill="#000000" stroke="none">
<path d="M775 795 c-5 -3 -158 -29 -340 -60 -181 -30 -354 -60 -383 -66 l-54
-11 5 -41 c2 -23 14 -76 26 -117 12 -41 29 -99 37 -127 l15 -53 333 0 334 0 7
199 7 199 35 7 c19 3 38 4 41 1 3 -3 -2 -6 -11 -6 -8 0 -25 -12 -36 -26 -20
-25 -21 -40 -21 -210 l0 -184 -339 0 c-379 0 -364 3 -359 -72 l3 -43 48 -3
c47 -3 47 -3 47 -38 0 -46 22 -87 63 -118 28 -21 45 -26 95 -26 57 0 65 3 101
35 38 35 66 101 54 131 -4 12 31 14 211 14 l216 0 0 -27 c1 -46 35 -108 72
-131 26 -16 51 -22 93 -22 55 0 60 2 101 44 39 39 44 48 44 90 l0 46 45 0 45
0 0 54 c0 44 -3 55 -19 59 -16 4 -19 16 -22 85 -5 90 -22 122 -69 122 -26 0
-27 3 -40 86 -9 64 -18 92 -37 115 l-25 29 -121 1 c-67 1 -112 4 -99 6 28 6
28 20 0 44 -19 17 -75 24 -103 14z m300 -137 c6 -15 25 -152 22 -153 -1 -1
-57 1 -124 3 l-123 4 0 72 c0 40 3 76 7 79 13 13 213 8 218 -5z m-698 -443
c44 -31 37 -111 -13 -134 -36 -16 -58 -14 -88 10 -54 43 -21 139 49 139 17 0
40 -7 52 -15z m744 -4 c33 -27 33 -95 0 -122 -32 -27 -77 -24 -106 6 -71 70
29 179 106 116z"/>
</g>
</svg>
