<?xml version="1.0" standalone="no"?>
<!DOCTYPE svg PUBLIC "-//W3C//DTD SVG 20010904//EN"
 "http://www.w3.org/TR/2001/REC-SVG-20010904/DTD/svg10.dtd">
<svg version="1.0" xmlns="http://www.w3.org/2000/svg"
 width="89.000000pt" height="99.000000pt" viewBox="0 0 89.000000 99.000000"
 preserveAspectRatio="xMidYMid meet">
<metadata>
Created by potrace 1.15, written by Peter Selinger 2001-2017
</metadata>
<g transform="translate(0.000000,99.000000) scale(0.100000,-0.100000)"
fill="#000000" stroke="none">
<path d="M47 984 c-16 -17 -6 -66 18 -88 16 -15 23 -30 19 -40 -9 -24 14 -72
42 -84 17 -8 24 -20 24 -39 0 -33 27 -70 55 -75 17 -3 19 -10 17 -41 -2 -21
-12 -57 -23 -80 -11 -26 -19 -65 -19 -103 0 -140 111 -253 249 -254 76 0 125
17 177 63 53 47 81 97 89 163 23 167 -140 319 -302 283 -26 -6 -69 -11 -95
-12 -45 -2 -48 0 -48 23 0 34 -26 70 -51 70 -15 0 -19 7 -19 34 0 48 -9 66
-37 77 -20 7 -22 11 -12 27 8 13 9 28 2 48 -8 24 -16 30 -44 32 -19 2 -38 0
-42 -4z"/>
</g>
</svg>
