<?xml version="1.0" standalone="no"?>
<!DOCTYPE svg PUBLIC "-//W3C//DTD SVG 20010904//EN"
 "http://www.w3.org/TR/2001/REC-SVG-20010904/DTD/svg10.dtd">
<svg version="1.0" xmlns="http://www.w3.org/2000/svg"
 width="172.000000pt" height="101.000000pt" viewBox="0 0 172.000000 101.000000"
 preserveAspectRatio="xMidYMid meet">
<metadata>
Created by potrace 1.15, written by Peter Selinger 2001-2017
</metadata>
<g transform="translate(0.000000,101.000000) scale(0.100000,-0.100000)"
fill="#000000" stroke="none">
<path d="M666 995 c-6 -18 2 -45 15 -45 5 0 8 -97 7 -222 -1 -123 -4 -180 -5
-129 -2 52 -9 101 -15 108 -6 8 -33 13 -67 13 l-56 0 0 79 c0 74 -2 82 -31
118 -34 41 -69 50 -87 21 -8 -13 -4 -24 21 -52 29 -33 32 -43 32 -100 l0 -64
-88 -4 -87 -3 -124 -75 c-143 -86 -161 -107 -161 -192 0 -32 -4 -58 -10 -58
-6 0 -10 -30 -10 -69 0 -68 0 -69 45 -110 l45 -41 98 0 97 0 20 -36 c43 -80
156 -140 250 -132 112 10 217 94 249 200 5 16 20 18 135 18 125 0 131 -1 155
-25 14 -14 34 -25 45 -25 13 0 26 -12 36 -29 37 -72 145 -141 222 -141 83 0
206 80 228 149 4 14 15 21 31 21 39 0 64 33 64 86 0 50 -26 83 -66 84 -14 0
-26 10 -34 30 -17 42 -90 104 -138 118 -85 26 -169 11 -234 -39 -20 -16 -48
-29 -62 -29 l-26 0 0 141 0 141 -41 92 c-23 50 -46 102 -52 116 -6 14 -11 41
-12 60 l0 35 -191 3 c-164 2 -193 0 -198 -13z m134 -156 c0 -96 3 -116 21
-145 26 -43 41 -51 169 -88 l105 -31 2 -77 3 -78 -164 0 c-140 0 -165 2 -170
16 -3 9 -6 128 -6 265 0 242 1 249 20 249 19 0 20 -7 20 -111z m230 -19 c58
-127 73 -170 62 -170 -28 1 -189 53 -203 66 -16 15 -19 33 -19 126 l0 109 51
-3 52 -3 57 -125z m-550 -205 c0 -24 5 -38 16 -42 26 -10 49 11 49 46 0 28 3
31 32 31 33 0 33 0 33 -49 l0 -48 -67 0 c-38 -1 -81 -6 -96 -12 -16 -6 -84
-11 -151 -11 -101 0 -126 -3 -137 -16 -9 -11 -10 -20 -2 -32 8 -13 28 -18 87
-20 42 -2 76 -5 76 -8 0 -3 -9 -19 -21 -35 -20 -28 -22 -29 -115 -29 l-94 0 0
48 c0 27 6 56 13 65 6 9 61 46 122 82 108 64 111 65 182 65 l73 0 0 -35z m114
-136 c50 -14 122 -81 137 -127 15 -45 14 -123 -2 -154 -17 -34 -70 -88 -104
-105 -68 -36 -185 -13 -242 49 -78 83 -67 222 23 296 59 49 115 61 188 41z
m886 -65 c14 -7 38 -26 54 -43 l30 -31 -162 0 c-161 0 -162 0 -150 21 16 26
71 60 112 69 36 8 81 2 116 -16z m-332 -71 c-14 -2 -38 -15 -53 -29 -25 -23
-32 -24 -156 -24 l-129 0 0 30 0 30 183 -1 c100 -1 170 -4 155 -6z m-883 -63
l0 -50 -70 0 c-64 0 -71 2 -102 32 -18 18 -33 40 -33 50 0 16 10 18 103 18
l102 0 0 -50z m1395 -24 c0 -8 -7 -17 -16 -20 -20 -8 -468 -8 -488 0 -9 3 -16
12 -16 20 0 12 44 14 260 14 216 0 260 -2 260 -14z m-136 -126 c-79 -74 -174
-75 -248 -1 l-41 41 165 0 165 -1 -41 -39z"/>
<path d="M813 523 c-7 -2 -13 -13 -13 -23 0 -34 24 -41 135 -38 88 2 110 6
118 20 8 12 7 21 -2 32 -11 13 -34 16 -120 15 -58 0 -112 -3 -118 -6z"/>
<path d="M468 437 c-127 -59 -132 -242 -8 -304 24 -13 58 -23 75 -23 47 1 109
34 141 75 24 32 29 48 29 95 0 64 -16 93 -49 88 -19 -3 -21 -10 -21 -66 0 -59
-2 -66 -33 -93 -34 -31 -55 -35 -95 -20 -41 16 -67 51 -67 90 1 67 54 106 129
96 45 -6 50 -5 56 15 5 15 2 28 -8 38 -20 20 -113 25 -149 9z"/>
</g>
</svg>
