<?xml version="1.0" standalone="no"?>
<!DOCTYPE svg PUBLIC "-//W3C//DTD SVG 20010904//EN"
 "http://www.w3.org/TR/2001/REC-SVG-20010904/DTD/svg10.dtd">
<svg version="1.0" xmlns="http://www.w3.org/2000/svg"
 width="141.000000pt" height="99.000000pt" viewBox="0 0 141.000000 99.000000"
 preserveAspectRatio="xMidYMid meet">
<metadata>
Created by potrace 1.15, written by Peter Selinger 2001-2017
</metadata>
<g transform="translate(0.000000,99.000000) scale(0.100000,-0.100000)"
fill="#000000" stroke="none">
<path d="M150 770 c0 -158 -4 -226 -12 -240 -10 -16 -10 -24 0 -41 11 -18 10
-23 -12 -40 -53 -42 -22 -129 44 -129 55 0 107 77 64 94 -23 9 -24 8 -34 -19
-6 -15 -17 -25 -30 -25 -15 0 -20 7 -20 25 0 15 6 25 15 25 33 0 39 40 36 255
-1 131 1 206 7 200 5 -5 47 -66 92 -135 46 -69 84 -127 86 -129 2 -2 12 2 21
10 17 13 17 13 1 -7 -26 -29 -25 -135 0 -157 10 -10 26 -17 35 -17 37 0 14
-18 -29 -23 -57 -6 -102 -46 -110 -97 -4 -27 0 -44 20 -72 l25 -38 -172 -2
-172 -3 0 -80 0 -80 58 -3 c51 -3 57 -1 57 17 0 33 48 81 81 81 43 0 77 -26
85 -66 5 -29 10 -34 35 -34 24 0 29 4 29 25 0 35 42 75 78 75 38 0 79 -33 87
-70 l7 -31 96 3 96 3 8 32 c22 86 144 80 161 -7 l6 -30 106 0 105 0 7 30 c17
87 139 93 161 7 8 -32 9 -32 73 -32 l64 0 3 78 c2 56 -1 79 -10 82 -10 4 -12
30 -10 104 l3 98 -60 74 c-33 41 -73 89 -90 107 l-30 32 -113 0 c-75 0 -118
-4 -126 -12 -9 -9 -12 -68 -12 -205 l0 -193 -56 0 -56 0 26 31 c60 71 2 179
-97 179 -14 0 -29 5 -32 10 -4 6 9 10 33 10 65 0 72 16 72 163 0 162 6 157
-178 157 -73 0 -141 -4 -151 -10 -15 -8 -38 11 -141 115 l-122 125 -54 0 -54
0 0 -220z m650 -170 l0 -110 -180 0 c-151 0 -180 2 -180 15 0 11 18 15 82 17
l81 3 25 93 25 92 73 0 74 0 0 -110z m407 -107 c75 -92 80 -83 -46 -83 l-111
0 0 65 0 65 59 0 c58 0 60 -1 98 -47z m-377 -143 c24 -24 26 -63 4 -84 -13
-14 -49 -16 -234 -16 -215 0 -219 0 -234 22 -21 30 -20 54 4 78 19 19 33 20
230 20 197 0 211 -1 230 -20z"/>
</g>
</svg>
